<mxfile host="Electron" modified="2023-07-18T12:33:59.719Z" agent="Mozilla/5.0 (Macintosh; Intel Mac OS X 10_15_7) AppleWebKit/537.36 (KHTML, like Gecko) draw.io/21.6.1 Chrome/112.0.5615.204 Electron/24.6.1 Safari/537.36" etag="8DxkCMiuYLIGpKXBGpYR" version="21.6.1" type="device">
  <diagram id="AqaJ9rl5Yjd-KqC5yate" name="Page-1">
    <mxGraphModel dx="2492" dy="1290" grid="1" gridSize="10" guides="1" tooltips="1" connect="1" arrows="1" fold="1" page="0" pageScale="1" pageWidth="1169" pageHeight="827" background="none" math="0" shadow="0">
      <root>
        <mxCell id="0" />
        <mxCell id="1" parent="0" />
        <mxCell id="LuzC_ZfbaJqYfXv-ErNW-12" value="" style="group" parent="1" vertex="1" connectable="0">
          <mxGeometry x="-1070" y="-320" width="380" height="230" as="geometry" />
        </mxCell>
        <mxCell id="LuzC_ZfbaJqYfXv-ErNW-1" value="Observer" style="rounded=1;whiteSpace=wrap;html=1;fontSize=16;fontFamily=Karla;fontSource=https%3A%2F%2Ffonts.googleapis.com%2Fcss%3Ffamily%3DKarla;fillColor=#eeeeee;strokeColor=#36393d;" parent="LuzC_ZfbaJqYfXv-ErNW-12" vertex="1">
          <mxGeometry width="120" height="60" as="geometry" />
        </mxCell>
        <mxCell id="LuzC_ZfbaJqYfXv-ErNW-2" value="Subject" style="whiteSpace=wrap;html=1;fontSize=16;fontFamily=Karla;rounded=1;fontSource=https%3A%2F%2Ffonts.googleapis.com%2Fcss%3Ffamily%3DKarla;fillColor=#cdeb8b;strokeColor=#36393d;" parent="LuzC_ZfbaJqYfXv-ErNW-12" vertex="1">
          <mxGeometry x="260" width="120" height="60" as="geometry" />
        </mxCell>
        <mxCell id="LuzC_ZfbaJqYfXv-ErNW-4" value="Observer" style="rounded=1;whiteSpace=wrap;html=1;fontSize=16;fontFamily=Karla;fontSource=https%3A%2F%2Ffonts.googleapis.com%2Fcss%3Ffamily%3DKarla;fillColor=#eeeeee;strokeColor=#36393d;" parent="LuzC_ZfbaJqYfXv-ErNW-12" vertex="1">
          <mxGeometry x="10" y="80" width="120" height="60" as="geometry" />
        </mxCell>
        <mxCell id="LuzC_ZfbaJqYfXv-ErNW-10" style="edgeStyle=none;curved=1;rounded=0;orthogonalLoop=1;jettySize=auto;html=1;entryX=1;entryY=0.5;entryDx=0;entryDy=0;fontSize=12;startSize=8;endSize=8;exitX=0;exitY=0.5;exitDx=0;exitDy=0;" parent="LuzC_ZfbaJqYfXv-ErNW-12" source="LuzC_ZfbaJqYfXv-ErNW-2" target="LuzC_ZfbaJqYfXv-ErNW-4" edge="1">
          <mxGeometry relative="1" as="geometry">
            <mxPoint x="270" y="40" as="sourcePoint" />
            <mxPoint x="150" y="130" as="targetPoint" />
          </mxGeometry>
        </mxCell>
        <mxCell id="LuzC_ZfbaJqYfXv-ErNW-5" value="Observer-3" style="rounded=1;whiteSpace=wrap;html=1;fontSize=16;fontFamily=Karla;fontSource=https%3A%2F%2Ffonts.googleapis.com%2Fcss%3Ffamily%3DKarla;fillColor=#eeeeee;strokeColor=#36393d;" parent="LuzC_ZfbaJqYfXv-ErNW-12" vertex="1">
          <mxGeometry x="40" y="170" width="120" height="60" as="geometry" />
        </mxCell>
        <mxCell id="LuzC_ZfbaJqYfXv-ErNW-9" style="edgeStyle=none;curved=1;rounded=0;orthogonalLoop=1;jettySize=auto;html=1;entryX=1;entryY=0.5;entryDx=0;entryDy=0;fontSize=12;startSize=8;endSize=8;exitX=0;exitY=0.5;exitDx=0;exitDy=0;" parent="LuzC_ZfbaJqYfXv-ErNW-12" source="LuzC_ZfbaJqYfXv-ErNW-2" target="LuzC_ZfbaJqYfXv-ErNW-5" edge="1">
          <mxGeometry relative="1" as="geometry" />
        </mxCell>
        <mxCell id="LuzC_ZfbaJqYfXv-ErNW-11" style="edgeStyle=none;curved=1;rounded=0;orthogonalLoop=1;jettySize=auto;html=1;fontSize=12;startSize=8;endSize=8;exitX=0;exitY=0.5;exitDx=0;exitDy=0;" parent="LuzC_ZfbaJqYfXv-ErNW-12" source="LuzC_ZfbaJqYfXv-ErNW-2" target="LuzC_ZfbaJqYfXv-ErNW-1" edge="1">
          <mxGeometry relative="1" as="geometry">
            <mxPoint x="270" y="40" as="sourcePoint" />
            <mxPoint x="140" y="120" as="targetPoint" />
          </mxGeometry>
        </mxCell>
      </root>
    </mxGraphModel>
  </diagram>
</mxfile>
